<svg width="553" height="260" viewBox="0 0 553 260" fill="none" xmlns="http://www.w3.org/2000/svg">
<g clip-path="url(#clip0_1583_2845)">
<rect width="553" height="260" rx="12" fill="black"/>
<rect x="-4.99072" y="294.205" width="303.096" height="557.991" transform="rotate(-90 -4.99072 294.205)" fill="url(#paint0_linear_1583_2845)" fill-opacity="0.7"/>
<g opacity="0.4">
<g opacity="0.2">
<path fill-rule="evenodd" clip-rule="evenodd" d="M52.772 27.568C83.6903 27.1424 108.962 9.09822 109.191 -15.3109C102.771 -15.2673 54.7356 -15.5799 52.9033 -15.1457L52.772 27.568Z" fill="white"/>
<path fill-rule="evenodd" clip-rule="evenodd" d="M53.0686 74.4607L109.114 74.4607C109.893 57.9656 95.5341 41.8088 75.9046 35.4939C69.8225 33.5372 60.3508 31.6964 52.8003 31.4525L53.0686 74.4605L53.0686 74.4607Z" fill="#5E7EF7"/>
<path fill-rule="evenodd" clip-rule="evenodd" d="M-8.91579 74.4605L46.7876 74.4605C46.2869 72.4092 27.9818 59.1092 23.1216 55.7855C19.4225 53.2558 9.36905 45.3682 5.6185 42.4236C3.26276 40.5744 1.13631 39.1231 -1.31627 37.1812C-2.19806 36.4831 -7.81718 32.6253 -8.91602 32.2223L-8.91602 74.4606L-8.91579 74.4605Z" fill="white"/>
<path fill-rule="evenodd" clip-rule="evenodd" d="M-8.91579 0.720132L-8.91579 26.9328C-7.94623 26.6051 -3.23475 22.9044 -1.89823 21.8275C0.303515 20.0542 2.79035 18.3911 5.13316 16.6624C14.2495 9.93605 24.3066 2.18189 33.4889 -4.22417C35.6342 -5.72106 45.7244 -13.324 46.8806 -15.1452L-8.72936 -15.2702L-8.91602 0.720132L-8.91579 0.720132Z" fill="#5E7EF7"/>
</g>
<g opacity="0.2">
<path fill-rule="evenodd" clip-rule="evenodd" d="M170.882 27.568C201.8 27.1425 227.072 9.09832 227.301 -15.3108C220.881 -15.2672 172.845 -15.5798 171.013 -15.1456L170.882 27.568Z" fill="white"/>
<path fill-rule="evenodd" clip-rule="evenodd" d="M171.177 74.4608L227.222 74.4608C228.001 57.9656 213.642 41.8089 194.013 35.494C187.931 33.5373 178.459 31.6965 170.909 31.4526L171.177 74.4606L171.177 74.4608Z" fill="#5E7EF7"/>
<path fill-rule="evenodd" clip-rule="evenodd" d="M109.193 74.4606L164.896 74.4606C164.395 72.4093 146.09 59.1093 141.23 55.7856C137.531 53.2559 127.477 45.3683 123.727 42.4237C121.371 40.5745 119.245 39.1232 116.792 37.1813C115.91 36.4832 110.291 32.6254 109.192 32.2224L109.192 74.4607L109.193 74.4606Z" fill="white"/>
<path fill-rule="evenodd" clip-rule="evenodd" d="M109.193 0.720223L109.193 26.9329C110.162 26.6052 114.874 22.9045 116.21 21.8276C118.412 20.0543 120.899 18.3912 123.242 16.6625C132.358 9.93615 142.415 2.18199 151.597 -4.22407C153.743 -5.72097 163.833 -13.3239 164.989 -15.1451L109.379 -15.2701L109.192 0.720223L109.193 0.720223Z" fill="#5E7EF7"/>
</g>
<g opacity="0.2">
<path fill-rule="evenodd" clip-rule="evenodd" d="M288.988 27.568C319.907 27.1425 345.179 9.09832 345.408 -15.3108C338.988 -15.2672 290.952 -15.5798 289.12 -15.1456L288.988 27.568Z" fill="white"/>
<path fill-rule="evenodd" clip-rule="evenodd" d="M289.284 74.4608L345.329 74.4608C346.108 57.9656 331.749 41.8089 312.12 35.494C306.038 33.5373 296.566 31.6965 289.016 31.4526L289.284 74.4606L289.284 74.4608Z" fill="#5E7EF7"/>
<path fill-rule="evenodd" clip-rule="evenodd" d="M227.301 74.4606L283.004 74.4606C282.503 72.4093 264.198 59.1093 259.338 55.7856C255.639 53.2559 245.585 45.3683 241.835 42.4237C239.479 40.5745 237.353 39.1232 234.9 37.1813C234.018 36.4832 228.399 32.6254 227.3 32.2224L227.3 74.4607L227.301 74.4606Z" fill="white"/>
<path fill-rule="evenodd" clip-rule="evenodd" d="M227.301 0.720223L227.301 26.9329C228.27 26.6052 232.982 22.9045 234.318 21.8276C236.52 20.0543 239.007 18.3912 241.349 16.6625C250.466 9.93615 260.523 2.18199 269.705 -4.22407C271.851 -5.72097 281.941 -13.3239 283.097 -15.1451L227.487 -15.2701L227.3 0.720223L227.301 0.720223Z" fill="#5E7EF7"/>
</g>
<g opacity="0.2">
<path fill-rule="evenodd" clip-rule="evenodd" d="M407.097 27.568C438.016 27.1425 463.288 9.0983 463.517 -15.3108C457.096 -15.2672 409.061 -15.5798 407.228 -15.1456L407.097 27.568Z" fill="white"/>
<path fill-rule="evenodd" clip-rule="evenodd" d="M407.395 74.4607L463.44 74.4607C464.22 57.9656 449.861 41.8089 430.231 35.494C424.149 33.5373 414.677 31.6964 407.127 31.4526L407.395 74.4606L407.395 74.4607Z" fill="#5E7EF7"/>
<path fill-rule="evenodd" clip-rule="evenodd" d="M345.41 74.4606L401.114 74.4606C400.613 72.4093 382.308 59.1093 377.448 55.7855C373.749 53.2559 363.695 45.3683 359.945 42.4237C357.589 40.5745 355.462 39.1232 353.01 37.1813C352.128 36.4832 346.509 32.6254 345.41 32.2224L345.41 74.4607L345.41 74.4606Z" fill="white"/>
<path fill-rule="evenodd" clip-rule="evenodd" d="M345.41 0.720208L345.41 26.9329C346.38 26.6052 351.091 22.9044 352.428 21.8276C354.63 20.0543 357.117 18.3912 359.459 16.6625C368.576 9.93613 378.633 2.18197 387.815 -4.22409C389.96 -5.72098 400.051 -13.3239 401.207 -15.1451L345.597 -15.2701L345.41 0.720208L345.41 0.720208Z" fill="#5E7EF7"/>
</g>
<g opacity="0.2">
<path fill-rule="evenodd" clip-rule="evenodd" d="M74.4077 200.945C108.665 200.473 136.666 180.48 136.92 153.435C129.806 153.484 76.5834 153.137 74.5532 153.618L74.4077 200.945Z" fill="white"/>
<path fill-rule="evenodd" clip-rule="evenodd" d="M74.7358 244.901L136.833 244.901C137.696 226.625 121.787 208.723 100.038 201.727C93.2989 199.559 82.8043 197.519 74.4385 197.249L74.7358 244.901L74.7358 244.901Z" fill="#5E7EF7"/>
<path fill-rule="evenodd" clip-rule="evenodd" d="M6.05836 244.901L67.7769 244.901C67.222 242.628 46.9403 227.892 41.5553 224.209C37.4568 221.406 26.3177 212.667 22.1621 209.404C19.552 207.355 17.1959 205.747 14.4785 203.596C13.5015 202.822 7.27559 198.548 6.05811 198.101L6.0581 244.901L6.05836 244.901Z" fill="white"/>
<path fill-rule="evenodd" clip-rule="evenodd" d="M6.05836 171.197L6.05836 200.241C7.13261 199.877 12.3529 195.777 13.8337 194.584C16.2732 192.619 19.0286 190.777 21.6244 188.861C31.7251 181.408 42.8682 172.817 53.0421 165.719C55.4191 164.061 66.5989 155.637 67.8799 153.619L6.26492 153.48L6.05811 171.197L6.05836 171.197Z" fill="#5E7EF7"/>
</g>
<g opacity="0.2">
<path fill-rule="evenodd" clip-rule="evenodd" d="M205.272 200.945C239.529 200.473 267.53 180.48 267.784 153.435C260.67 153.484 207.448 153.137 205.417 153.618L205.272 200.945Z" fill="white"/>
<path fill-rule="evenodd" clip-rule="evenodd" d="M205.599 244.901L267.696 244.901C268.559 226.625 252.65 208.723 230.9 201.727C224.162 199.559 213.667 197.519 205.301 197.249L205.599 244.901L205.599 244.901Z" fill="#5E7EF7"/>
<path fill-rule="evenodd" clip-rule="evenodd" d="M136.921 244.901L198.64 244.901C198.085 242.628 177.803 227.892 172.418 224.209C168.32 221.406 157.18 212.667 153.025 209.404C150.415 207.355 148.059 205.747 145.341 203.596C144.364 202.822 138.138 198.548 136.921 198.101L136.921 244.901L136.921 244.901Z" fill="white"/>
<path fill-rule="evenodd" clip-rule="evenodd" d="M136.921 171.197L136.921 200.241C137.995 199.877 143.216 195.777 144.696 194.584C147.136 192.619 149.891 190.777 152.487 188.861C162.588 181.408 173.731 172.817 183.905 165.719C186.282 164.061 197.462 155.637 198.743 153.619L137.128 153.48L136.921 171.197L136.921 171.197Z" fill="#5E7EF7"/>
</g>
<g opacity="0.2">
<path fill-rule="evenodd" clip-rule="evenodd" d="M336.132 200.945C370.389 200.473 398.39 180.48 398.644 153.436C391.53 153.484 338.307 153.137 336.277 153.619L336.132 200.945Z" fill="white"/>
<path fill-rule="evenodd" clip-rule="evenodd" d="M336.46 244.901L398.558 244.901C399.421 226.625 383.511 208.724 361.762 201.727C355.023 199.559 344.529 197.519 336.163 197.249L336.46 244.901L336.46 244.901Z" fill="#5E7EF7"/>
<path fill-rule="evenodd" clip-rule="evenodd" d="M267.783 244.901L329.501 244.901C328.947 242.628 308.665 227.892 303.28 224.209C299.181 221.406 288.042 212.667 283.887 209.404C281.277 207.355 278.921 205.748 276.203 203.596C275.226 202.822 269 198.548 267.783 198.102L267.783 244.901L267.783 244.901Z" fill="white"/>
<path fill-rule="evenodd" clip-rule="evenodd" d="M267.783 171.197L267.783 200.241C268.857 199.878 274.077 195.777 275.558 194.584C277.998 192.619 280.753 190.777 283.349 188.861C293.45 181.409 304.593 172.817 314.767 165.719C317.144 164.061 328.323 155.637 329.605 153.619L267.99 153.48L267.783 171.197L267.783 171.197Z" fill="#5E7EF7"/>
</g>
<g opacity="0.2">
<path fill-rule="evenodd" clip-rule="evenodd" d="M466.996 200.945C501.253 200.473 529.254 180.48 529.507 153.436C522.394 153.484 469.171 153.137 467.141 153.619L466.996 200.945Z" fill="white"/>
<path fill-rule="evenodd" clip-rule="evenodd" d="M467.325 244.901L529.422 244.901C530.285 226.625 514.376 208.724 492.627 201.727C485.888 199.559 475.394 197.519 467.028 197.249L467.325 244.901L467.325 244.901Z" fill="#5E7EF7"/>
<path fill-rule="evenodd" clip-rule="evenodd" d="M398.648 244.901L460.366 244.901C459.811 242.628 439.53 227.892 434.145 224.209C430.046 221.406 418.907 212.667 414.751 209.404C412.141 207.355 409.785 205.748 407.068 203.596C406.091 202.822 399.865 198.548 398.647 198.102L398.647 244.901L398.648 244.901Z" fill="white"/>
<path fill-rule="evenodd" clip-rule="evenodd" d="M398.648 171.197L398.648 200.241C399.722 199.878 404.942 195.777 406.423 194.584C408.863 192.619 411.618 190.777 414.214 188.861C424.314 181.409 435.458 172.817 445.631 165.719C448.008 164.061 459.188 155.637 460.469 153.619L398.854 153.48L398.647 171.197L398.648 171.197Z" fill="#5E7EF7"/>
</g>
<g opacity="0.2">
<path fill-rule="evenodd" clip-rule="evenodd" d="M461.323 104.708C427.089 105.257 399.2 125.309 399.074 152.351C406.183 152.286 459.374 152.512 461.401 152.027L461.323 104.708Z" fill="#47E2A3"/>
<path fill-rule="evenodd" clip-rule="evenodd" d="M460.795 58.7517L398.737 58.8925C397.96 77.1679 413.943 95.0304 435.712 101.977C442.457 104.129 452.954 106.145 461.316 106.396L460.795 58.7519L460.795 58.7517Z" fill="#47E2A3"/>
<path fill-rule="evenodd" clip-rule="evenodd" d="M529.474 58.6038L467.794 58.7437C468.359 61.0149 488.698 75.7028 494.097 79.3726C498.206 82.1657 509.379 90.8785 513.548 94.131C516.166 96.1737 518.528 97.7761 521.254 99.9212C522.234 100.692 528.476 104.952 529.695 105.396L529.475 58.6036L529.474 58.6038Z" fill="#47E2A3"/>
<path fill-rule="evenodd" clip-rule="evenodd" d="M529.816 134.302L529.679 105.263C528.607 105.629 523.409 109.74 521.935 110.937C519.506 112.907 516.761 114.755 514.176 116.676C504.117 124.15 493.021 132.766 482.887 139.885C480.519 141.549 469.386 149.997 468.116 152.017L529.693 152.017L529.816 134.302L529.816 134.302Z" fill="#47E2A3"/>
</g>
<g opacity="0.2">
<path fill-rule="evenodd" clip-rule="evenodd" d="M330.458 104.989C296.224 105.538 268.335 125.59 268.209 152.632C275.318 152.567 328.509 152.794 330.536 152.308L330.458 104.989Z" fill="#47E2A3"/>
<path fill-rule="evenodd" clip-rule="evenodd" d="M329.929 59.0334L267.871 59.1741C267.094 77.4496 283.078 95.3121 304.846 102.259C311.591 104.411 322.089 106.426 330.451 106.678L329.929 59.0336L329.929 59.0334Z" fill="#47E2A3"/>
<path fill-rule="evenodd" clip-rule="evenodd" d="M398.607 58.8855L336.927 59.0254C337.492 61.2965 357.831 75.9844 363.23 79.6543C367.339 82.4474 378.512 91.1601 382.68 94.4127C385.299 96.4554 387.661 98.0578 390.387 100.203C391.367 100.974 397.609 105.234 398.828 105.677L398.607 58.8853L398.607 58.8855Z" fill="#47E2A3"/>
<path fill-rule="evenodd" clip-rule="evenodd" d="M398.95 134.584L398.813 105.545C397.741 105.91 392.544 110.022 391.07 111.218C388.641 113.188 385.896 115.037 383.311 116.958C373.251 124.432 362.156 133.048 352.021 140.167C349.654 141.831 338.521 150.279 337.25 152.299L398.827 152.298L398.951 134.584L398.95 134.584Z" fill="#47E2A3"/>
</g>
<g opacity="0.2">
<path fill-rule="evenodd" clip-rule="evenodd" d="M199.599 105.269C165.365 105.817 137.476 125.87 137.35 152.911C144.459 152.847 197.65 153.073 199.677 152.588L199.599 105.269Z" fill="#47E2A3"/>
<path fill-rule="evenodd" clip-rule="evenodd" d="M199.07 59.3133L137.011 59.4541C136.235 77.7295 152.218 95.592 173.987 102.539C180.732 104.691 191.229 106.706 199.591 106.958L199.07 59.3135L199.07 59.3133Z" fill="#47E2A3"/>
<path fill-rule="evenodd" clip-rule="evenodd" d="M267.748 59.1649L206.067 59.3048C206.633 61.576 226.971 76.2639 232.37 79.9337C236.479 82.7268 247.653 91.4396 251.821 94.6921C254.439 96.7348 256.801 98.3372 259.527 100.482C260.507 101.254 266.749 105.513 267.968 105.957L267.748 59.1647L267.748 59.1649Z" fill="#47E2A3"/>
<path fill-rule="evenodd" clip-rule="evenodd" d="M268.091 134.864L267.954 105.825C266.882 106.19 261.684 110.302 260.21 111.498C257.781 113.468 255.036 115.317 252.451 117.238C242.392 124.712 231.296 133.327 221.162 140.447C218.794 142.111 207.661 150.559 206.39 152.579L267.968 152.578L268.091 134.864L268.091 134.864Z" fill="#47E2A3"/>
</g>
<g opacity="0.2">
<path fill-rule="evenodd" clip-rule="evenodd" d="M68.7328 105.552C34.4992 106.101 6.61002 126.153 6.48411 153.195C13.5929 153.13 66.7843 153.357 68.8109 152.871L68.7328 105.552Z" fill="white"/>
<path fill-rule="evenodd" clip-rule="evenodd" d="M68.2043 59.5968L6.14575 59.7375C5.36908 78.013 21.3527 95.8755 43.1213 102.822C49.8661 104.974 60.3636 106.99 68.7256 107.241L68.2043 59.597L68.2043 59.5968Z" fill="#5E7EF7"/>
<path fill-rule="evenodd" clip-rule="evenodd" d="M136.884 59.4483L75.2032 59.5882C75.7684 61.8594 96.1069 76.5473 101.506 80.2171C105.615 83.0102 116.788 91.723 120.957 94.9755C123.575 97.0182 125.937 98.6206 128.663 100.766C129.643 101.537 135.885 105.797 137.104 106.24L136.884 59.4481L136.884 59.4483Z" fill="white"/>
<path fill-rule="evenodd" clip-rule="evenodd" d="M137.225 135.147L137.088 106.108C136.016 106.474 130.819 110.585 129.344 111.782C126.916 113.752 124.171 115.6 121.586 117.521C111.526 124.996 100.43 133.611 90.2963 140.731C87.9287 142.394 76.7955 150.842 75.5247 152.863L137.102 152.862L137.226 135.147L137.225 135.147Z" fill="#5E7EF7"/>
</g>
<g opacity="0.2">
<path fill-rule="evenodd" clip-rule="evenodd" d="M401.5 238.181L345.49 238.308C344.789 254.802 359.215 270.924 378.862 277.193C384.949 279.136 394.424 280.955 401.971 281.182L401.5 238.181L401.5 238.181Z" fill="#5E7EF7"/>
<path fill-rule="evenodd" clip-rule="evenodd" d="M463.485 238.046L407.816 238.172C408.326 240.222 426.683 253.478 431.555 256.79C435.264 259.311 445.348 267.175 449.111 270.11C451.474 271.954 453.606 273.4 456.066 275.336C456.95 276.032 462.584 279.877 463.684 280.277L463.485 238.046L463.485 238.046Z" fill="white"/>
</g>
<g opacity="0.2">
<path fill-rule="evenodd" clip-rule="evenodd" d="M283.391 238.429L227.381 238.556C226.68 255.051 241.105 271.172 260.752 277.442C266.84 279.384 276.314 281.203 283.861 281.43L283.391 238.429L283.391 238.429Z" fill="#5E7EF7"/>
<path fill-rule="evenodd" clip-rule="evenodd" d="M345.377 238.294L289.708 238.42C290.218 240.47 308.574 253.727 313.447 257.039C317.156 259.56 327.24 267.423 331.002 270.359C333.365 272.203 335.497 273.649 337.957 275.585C338.842 276.281 344.476 280.125 345.576 280.526L345.377 238.294L345.377 238.294Z" fill="white"/>
</g>
<g opacity="0.2">
<path fill-rule="evenodd" clip-rule="evenodd" d="M165.283 238.687L109.273 238.814C108.572 255.309 122.997 271.43 142.644 277.7C148.732 279.642 158.206 281.461 165.753 281.688L165.283 238.687L165.283 238.687Z" fill="#5E7EF7"/>
<path fill-rule="evenodd" clip-rule="evenodd" d="M227.268 238.553L171.599 238.679C172.109 240.729 190.465 253.985 195.338 257.297C199.047 259.818 209.131 267.682 212.893 270.617C215.256 272.461 217.388 273.907 219.848 275.843C220.733 276.539 226.367 280.384 227.467 280.784L227.268 238.553L227.268 238.553Z" fill="white"/>
</g>
<g opacity="0.2">
<path fill-rule="evenodd" clip-rule="evenodd" d="M47.1751 238.943L-8.83529 239.07C-9.53626 255.564 4.88957 271.686 24.5366 277.955C30.624 279.898 40.0985 281.717 47.6455 281.944L47.1751 238.943L47.1751 238.943Z" fill="#5E7EF7"/>
<path fill-rule="evenodd" clip-rule="evenodd" d="M109.161 238.808L53.492 238.934C54.0021 240.984 72.3583 254.24 77.2312 257.553C80.9399 260.074 91.0243 267.937 94.7863 270.873C97.1493 272.716 99.2813 274.163 101.741 276.099C102.626 276.795 108.26 280.639 109.36 281.04L109.161 238.808L109.161 238.808Z" fill="white"/>
</g>
</g>
<rect x="221.2" y="73.2" width="110.6" height="110.6" rx="55.3" fill="url(#paint1_linear_1583_2845)"/>
<rect x="221.2" y="73.2" width="110.6" height="110.6" rx="55.3" stroke="url(#paint2_linear_1583_2845)" stroke-width="0.4"/>
<path d="M523.05 246.033C524.8 247.083 526.9 247.667 529 247.667C535.417 247.667 540.667 242.417 540.667 236C540.667 229.583 535.417 224.333 529 224.333C522.583 224.333 517.333 229.583 517.333 236C517.333 238.1 517.917 240.083 518.85 241.833L517.774 245.973C517.579 246.722 518.272 247.398 519.016 247.186L523.05 246.033Z" stroke="white" stroke-miterlimit="10" stroke-linecap="round" stroke-linejoin="round"/>
<path d="M534.25 239.323C534.25 239.512 534.208 239.706 534.119 239.895C534.029 240.084 533.913 240.263 533.761 240.431C533.503 240.714 533.219 240.919 532.899 241.05C532.583 241.182 532.241 241.25 531.873 241.25C531.337 241.25 530.764 241.124 530.159 240.867C529.555 240.609 528.95 240.263 528.351 239.827C527.746 239.386 527.173 238.898 526.626 238.357C526.085 237.811 525.596 237.239 525.159 236.64C524.728 236.042 524.381 235.444 524.129 234.85C523.876 234.252 523.75 233.679 523.75 233.133C523.75 232.776 523.813 232.435 523.939 232.12C524.065 231.8 524.265 231.506 524.544 231.244C524.88 230.913 525.248 230.75 525.638 230.75C525.785 230.75 525.932 230.782 526.063 230.845C526.2 230.908 526.321 231.002 526.416 231.138L527.636 232.855C527.73 232.987 527.799 233.107 527.846 233.223C527.893 233.333 527.92 233.443 527.92 233.543C527.92 233.669 527.883 233.795 527.809 233.916C527.741 234.036 527.641 234.162 527.515 234.288L527.115 234.703C527.057 234.761 527.031 234.829 527.031 234.913C527.031 234.955 527.036 234.992 527.047 235.034C527.062 235.076 527.078 235.107 527.089 235.139C527.183 235.312 527.346 235.538 527.578 235.811C527.814 236.084 528.067 236.362 528.34 236.64C528.624 236.919 528.897 237.176 529.176 237.412C529.45 237.643 529.676 237.801 529.854 237.895C529.881 237.906 529.912 237.921 529.949 237.937C529.991 237.953 530.033 237.958 530.08 237.958C530.17 237.958 530.238 237.927 530.296 237.869L530.696 237.475C530.827 237.344 530.953 237.244 531.074 237.181C531.195 237.108 531.316 237.071 531.448 237.071C531.547 237.071 531.653 237.092 531.768 237.139C531.884 237.186 532.005 237.255 532.136 237.344L533.877 238.578C534.013 238.672 534.108 238.782 534.166 238.914C534.218 239.045 534.25 239.176 534.25 239.323Z" stroke="white" stroke-miterlimit="10"/>
<path d="M305.051 121.046L271.026 104.034C264.793 100.917 257.458 105.45 257.458 112.419V144.581C257.458 151.55 264.793 156.083 271.026 152.966L305.051 135.954C311.193 132.883 311.193 124.117 305.051 121.046Z" fill="white"/>
</g>
<defs>
<linearGradient id="paint0_linear_1583_2845" x1="146.557" y1="294.205" x2="146.557" y2="852.195" gradientUnits="userSpaceOnUse">
<stop offset="0.121666" stop-color="#3CDCB5"/>
<stop offset="0.601666" stop-color="#2AD670"/>
<stop offset="0.841666" stop-color="#3CDCB4"/>
<stop offset="1" stop-color="#26CF66"/>
</linearGradient>
<linearGradient id="paint1_linear_1583_2845" x1="236.54" y1="84.1" x2="318.68" y2="179.56" gradientUnits="userSpaceOnUse">
<stop stop-color="#4BE4A9"/>
<stop offset="0.5" stop-color="#25D366"/>
<stop offset="1" stop-color="#43DFCD"/>
</linearGradient>
<linearGradient id="paint2_linear_1583_2845" x1="276.5" y1="73" x2="276.5" y2="184" gradientUnits="userSpaceOnUse">
<stop stop-color="#3DDDB9"/>
<stop offset="1" stop-color="#28D571"/>
</linearGradient>
<clipPath id="clip0_1583_2845">
<rect width="553" height="260" rx="12" fill="white"/>
</clipPath>
</defs>
</svg>
