<svg width="29" height="30" viewBox="0 0 29 30" fill="none" xmlns="http://www.w3.org/2000/svg">
<path d="M5.91837 14.5603C5.91837 12.8631 5.91837 12.0145 6.25677 11.2686C6.59518 10.5226 7.23072 9.97037 8.5018 8.86585L9.73479 7.79442C12.0322 5.79801 13.181 4.7998 14.5493 4.7998C15.9177 4.7998 17.0664 5.79801 19.3638 7.79442L20.5968 8.86585C21.8679 9.97037 22.5035 10.5226 22.8419 11.2686C23.1803 12.0145 23.1803 12.8631 23.1803 14.5603V19.8608C23.1803 22.2178 23.1803 23.3963 22.458 24.1285C21.7357 24.8608 20.5733 24.8608 18.2483 24.8608H10.8503C8.52538 24.8608 7.36291 24.8608 6.64064 24.1285C5.91837 23.3963 5.91837 22.2178 5.91837 19.8608V14.5603Z" stroke="white" stroke-width="2"/>
<path d="M17.6318 24.8608V18.3608C17.6318 17.8086 17.1841 17.3608 16.6318 17.3608H12.4668C11.9146 17.3608 11.4668 17.8086 11.4668 18.3608V24.8608" stroke="white" stroke-width="2" stroke-linecap="round" stroke-linejoin="round"/>
</svg>
