<svg width="44" height="44" viewBox="0 0 44 44" fill="none" xmlns="http://www.w3.org/2000/svg">
<path d="M40.3333 11.917H29.3333" stroke="#171717" stroke-width="3" stroke-miterlimit="10" stroke-linecap="round" stroke-linejoin="round"/>
<path d="M11 11.917H3.66669" stroke="#171717" stroke-width="3" stroke-miterlimit="10" stroke-linecap="round" stroke-linejoin="round"/>
<path d="M18.3334 18.3333C21.8772 18.3333 24.75 15.4605 24.75 11.9167C24.75 8.37284 21.8772 5.5 18.3334 5.5C14.7895 5.5 11.9167 8.37284 11.9167 11.9167C11.9167 15.4605 14.7895 18.3333 18.3334 18.3333Z" stroke="#171717" stroke-width="3" stroke-miterlimit="10" stroke-linecap="round" stroke-linejoin="round"/>
<path d="M40.3333 32.083H33" stroke="#171717" stroke-width="3" stroke-miterlimit="10" stroke-linecap="round" stroke-linejoin="round"/>
<path d="M14.6667 32.083H3.66669" stroke="#171717" stroke-width="3" stroke-miterlimit="10" stroke-linecap="round" stroke-linejoin="round"/>
<path d="M25.6667 38.5003C29.2105 38.5003 32.0833 35.6275 32.0833 32.0837C32.0833 28.5398 29.2105 25.667 25.6667 25.667C22.1228 25.667 19.25 28.5398 19.25 32.0837C19.25 35.6275 22.1228 38.5003 25.6667 38.5003Z" stroke="#171717" stroke-width="3" stroke-miterlimit="10" stroke-linecap="round" stroke-linejoin="round"/>
</svg>
